<?xml version="1.0" standalone="no"?>
<!DOCTYPE svg PUBLIC "-//W3C//DTD SVG 20010904//EN"
 "http://www.w3.org/TR/2001/REC-SVG-20010904/DTD/svg10.dtd">
<svg version="1.0" xmlns="http://www.w3.org/2000/svg"
 width="512.000000pt" height="512.000000pt" viewBox="0 0 512.000000 512.000000"
 preserveAspectRatio="xMidYMid meet">
<metadata>
Created by potrace 1.11, written by Peter Selinger 2001-2013
</metadata>
<g transform="translate(0.000000,512.000000) scale(0.100000,-0.100000)"
fill="#000000" stroke="none">
<path d="M2285 4603 c-128 -16 -343 -72 -475 -125 -1049 -417 -1566 -1584
-1173 -2648 19 -52 41 -101 47 -108 11 -11 40 2 159 72 80 47 149 86 153 86 4
0 15 7 25 16 16 14 15 21 -18 111 -35 100 -68 226 -78 304 -3 24 -7 60 -10 79
-11 86 -5 328 10 415 17 103 31 160 61 256 172 543 612 960 1164 1103 82 21
170 39 205 41 6 0 10 76 10 203 l0 202 -25 -1 c-14 -1 -38 -4 -55 -6z"/>
<path d="M2765 4410 c0 -193 1 -201 20 -205 182 -37 243 -52 327 -81 347 -121
635 -347 841 -659 290 -441 351 -1017 158 -1502 l-21 -53 38 -22 c21 -13 47
-29 57 -36 11 -6 27 -15 35 -19 8 -4 43 -24 78 -45 34 -21 66 -38 70 -38 4 0
18 -9 32 -20 14 -11 30 -20 35 -20 6 0 27 42 47 93 132 334 172 680 123 1056
-3 25 -8 47 -9 50 -2 3 -7 28 -10 54 -10 70 -70 274 -112 375 -107 260 -269
501 -468 696 -91 89 -276 234 -351 276 -22 12 -44 26 -50 30 -42 33 -415 199
-415 185 0 -2 -25 5 -56 15 -60 21 -223 54 -314 65 l-55 6 0 -201z"/>
<path d="M2487 3843 c-1 -1 -29 -4 -62 -8 -157 -16 -284 -54 -441 -130 -264
-128 -485 -354 -603 -617 -31 -68 -67 -172 -75 -209 -2 -13 -7 -31 -10 -39
-12 -35 -29 -180 -29 -265 -4 -608 406 -1125 1003 -1264 735 -172 1469 321
1580 1062 73 488 -137 959 -557 1250 -90 63 -265 144 -363 169 -92 23 -170 39
-225 44 -56 6 -215 11 -218 7z m-172 -683 c50 -31 97 -59 105 -63 8 -4 57 -34
109 -67 51 -33 94 -60 96 -60 1 0 59 -35 127 -77 69 -43 195 -121 281 -173 86
-52 186 -113 222 -136 l65 -40 -178 -109 c-97 -60 -316 -194 -487 -299 -452
-277 -449 -275 -454 -270 -3 3 -5 1253 -2 1342 1 16 5 21 14 16 6 -5 53 -33
102 -64z"/>
<path d="M1058 1462 c-93 -53 -168 -99 -168 -102 0 -7 90 -119 155 -194 43
-49 127 -128 229 -214 90 -76 270 -189 406 -254 211 -101 455 -167 710 -193
59 -6 288 -6 330 -1 14 2 57 7 95 11 444 46 898 271 1223 605 70 71 202 228
202 240 0 3 -59 39 -131 80 -198 113 -218 124 -222 119 -1 -2 -27 -33 -57 -68
-267 -315 -638 -518 -1045 -575 -98 -13 -376 -14 -440 -1 -16 3 -56 10 -88 16
-72 13 -233 59 -307 89 -243 97 -533 311 -673 497 -18 23 -36 42 -42 42 -5 0
-85 -44 -177 -97z"/>
</g>
</svg>
