<?xml version="1.0" standalone="no"?>
<!DOCTYPE svg PUBLIC "-//W3C//DTD SVG 20010904//EN"
 "http://www.w3.org/TR/2001/REC-SVG-20010904/DTD/svg10.dtd">
<svg version="1.0" xmlns="http://www.w3.org/2000/svg"
 width="512.000000pt" height="512.000000pt" viewBox="0 0 512.000000 512.000000"
 preserveAspectRatio="xMidYMid meet">
<metadata>
Created by potrace 1.11, written by Peter Selinger 2001-2013
</metadata>
<g transform="translate(0.000000,512.000000) scale(0.100000,-0.100000)"
fill="#000000" stroke="none">
<path d="M2295 4607 c-38 -4 -121 -19 -183 -33 -617 -138 -1136 -551 -1408
-1119 -250 -523 -270 -1102 -57 -1661 28 -75 39 -92 56 -93 85 -6 93 -4 202
58 124 70 155 99 155 142 0 16 -15 80 -34 142 -53 176 -70 289 -70 477 0 115
6 195 18 265 96 532 424 977 895 1211 132 65 223 98 375 134 164 39 160 34
164 216 3 140 -6 204 -29 204 -4 0 -9 15 -11 33 l-3 32 -70 -8z"/>
<path d="M2760 4408 c0 -207 0 -208 22 -208 12 0 32 -9 44 -21 14 -13 64 -31
141 -49 279 -67 506 -181 716 -362 253 -216 435 -543 509 -910 18 -93 22 -146
22 -298 0 -215 -19 -336 -86 -535 -37 -111 -38 -121 -22 -130 10 -5 34 -24 53
-41 43 -37 237 -150 274 -159 40 -10 67 12 97 78 84 187 140 485 140 747 0
456 -150 900 -428 1265 -68 89 -285 307 -382 385 -295 235 -673 396 -1027 438
l-73 8 0 -208z"/>
<path d="M2418 3840 c-500 -58 -933 -403 -1088 -868 -51 -156 -63 -232 -63
-412 0 -180 12 -256 63 -412 62 -185 157 -336 313 -496 139 -142 211 -197 357
-271 213 -109 367 -146 605 -146 238 0 392 37 605 146 143 73 219 130 340 255
176 182 282 382 336 636 25 116 25 380 0 496 -36 169 -100 322 -194 467 -57
86 -242 278 -340 352 -145 109 -338 196 -519 232 -116 24 -307 33 -415 21z
m365 -990 c441 -271 507 -314 497 -323 -23 -22 -1024 -627 -1029 -622 -3 4 -6
273 -6 599 0 652 -2 631 59 624 19 -2 214 -116 479 -278z"/>
<path d="M1070 1474 c-91 -53 -171 -99 -178 -103 -20 -11 61 -113 212 -269
148 -152 220 -213 361 -307 600 -399 1400 -450 2050 -130 139 69 289 163 397
252 85 69 303 294 323 334 9 17 15 48 13 73 l-3 43 -178 103 -178 103 -16 -23
c-79 -113 -260 -280 -408 -376 -605 -393 -1405 -346 -1954 114 -75 64 -261
258 -261 273 0 16 -14 9 -180 -87z"/>
</g>
</svg>
